<mxfile host="app.diagrams.net" modified="2024-02-14T15:34:39.806Z" agent="Mozilla/5.0 (Macintosh; Intel Mac OS X 10_15_7) AppleWebKit/537.36 (KHTML, like Gecko) Chrome/120.0.0.0 Safari/537.36" version="23.1.4" etag="MRDxf4OTvSkvg8TOsvPk" type="github">
  <diagram name="Page-1" id="kiEhge1-3WJuMOWhiXiX">
    <mxGraphModel>
      <root>
        <mxCell id="0" />
        <mxCell id="1" parent="0" />
      </root>
    </mxGraphModel>
  </diagram>
</mxfile>
